<!DOCTYPE svg PUBLIC "-//W3C//DTD SVG 1.1//EN" "http://www.w3.org/Graphics/SVG/1.1/DTD/svg11.dtd">
<!-- Uploaded to: SVG Repo, www.svgrepo.com, Transformed by: SVG Repo Mixer Tools -->
<svg width="256px" height="256px" viewBox="0 0 64 64" xmlns="http://www.w3.org/2000/svg" fill="#000000">
<g id="SVGRepo_bgCarrier" stroke-width="0"/>
<g id="SVGRepo_tracerCarrier" stroke-linecap="round" stroke-linejoin="round"/>
<g id="SVGRepo_iconCarrier"> <defs> <style>.cls-1{fill:#ffdb70;}.cls-2{fill:#ffdb70;}.cls-3{fill:#ffdb70;}</style> </defs> <title/> <g data-name="outline color" id="outline_color"> <path class="cls-1" d="M45,46c-7.22,0-15-1.56-15-5s7.78-5,15-5,15,1.56,15,5S52.22,46,45,46Zm0-8c-8.58,0-13,2.1-13,3s4.42,3,13,3,13-2.1,13-3S53.58,38,45,38Z"/> <path class="cls-1" d="M45,50c-7.22,0-15-1.56-15-5,0-1.12.82-2.1,2.45-2.9a1,1,0,1,1,.88,1.8c-1,.52-1.33.94-1.33,1.1,0,.9,4.42,3,13,3s13-2.1,13-3c0-.16-.28-.58-1.33-1.1a1,1,0,1,1,.88-1.8C59.18,42.9,60,43.88,60,45,60,48.44,52.22,50,45,50Z"/> <path class="cls-1" d="M45,54c-7.22,0-15-1.56-15-5,0-1.12.82-2.1,2.45-2.9a1,1,0,1,1,.88,1.8c-1,.52-1.33.94-1.33,1.1,0,.9,4.42,3,13,3s13-2.1,13-3c0-.16-.28-.58-1.33-1.1a1,1,0,1,1,.88-1.8C59.18,46.9,60,47.88,60,49,60,52.44,52.22,54,45,54Z"/> <path class="cls-1" d="M45,58c-7.22,0-15-1.56-15-5,0-1.12.82-2.1,2.45-2.9a1,1,0,1,1,.88,1.8c-1,.52-1.33.94-1.33,1.1,0,.9,4.42,3,13,3s13-2.1,13-3c0-.16-.28-.58-1.33-1.1a1,1,0,1,1,.88-1.8C59.18,50.9,60,51.88,60,53,60,56.44,52.22,58,45,58Z"/> <path class="cls-1" d="M50,42H40a1,1,0,0,1,0-2H50a1,1,0,0,1,0,2Z"/> <path class="cls-2" d="M21.67,55.1a5.06,5.06,0,0,1-1.79-.33,5,5,0,0,1-2.77-2.63L4.46,23.84A5,5,0,0,1,7,17.24l21-9.4a1,1,0,0,1,.82,1.82l-21,9.4a3,3,0,0,0-1.58,1.67A3,3,0,0,0,6.28,23l12.65,28.3a3,3,0,0,0,4,1.52l3.79-1.7A1,1,0,1,1,27.5,53l-3.79,1.7A5,5,0,0,1,21.67,55.1Z"/> <path class="cls-3" d="M18,34.41a3.5,3.5,0,1,1,3.19-4.93.36.36,0,0,1,0,.11,1,1,0,0,1,.06.33,1,1,0,0,1-1.94.34,1.5,1.5,0,1,0-.8,2.05,1,1,0,1,1,.86,1.8h0A3.39,3.39,0,0,1,18,34.41Z"/> <path class="cls-3" d="M22.84,24.31a1,1,0,0,1-.91-.59l-2.05-4.59a1,1,0,0,1,0-.77.94.94,0,0,1,.52-.55l4.59-2a1,1,0,0,1,.82,1.82l-3.68,1.64,1.64,3.67a1,1,0,0,1-.5,1.32A1,1,0,0,1,22.84,24.31Z"/> <path class="cls-2" d="M20.31,30.89a1,1,0,0,1-.95-.67A1,1,0,0,1,20,28.94a1,1,0,0,1,1.29.62,1,1,0,0,1-.6,1.27h0A1.26,1.26,0,0,1,20.31,30.89Z"/> <path class="cls-2" d="M27,45.39a.92.92,0,0,1-.36-.07l-6.95-2.66a5,5,0,0,1-2.88-6.45l2.53-6.63a.37.37,0,0,1,.05-.11L27.91,7.25a5,5,0,0,1,6.46-2.88l22.42,8.57a5,5,0,0,1,2.89,6.44L54.07,34a1,1,0,1,1-1.86-.72l5.6-14.65a3,3,0,0,0-1.74-3.87L33.65,6.23A3,3,0,0,0,29.77,8l-8.5,22.27,0,.08-2.53,6.61a3,3,0,0,0,1.74,3.87l7,2.66A1,1,0,0,1,27,45.39Z"/> <path class="cls-3" d="M31,28.17a3.43,3.43,0,0,1-1.25-.24,3.5,3.5,0,1,1,4.52-2h0a3.46,3.46,0,0,1-1.84,1.95A3.57,3.57,0,0,1,31,28.17Zm0-5a1.5,1.5,0,0,0-.53,2.91,1.51,1.51,0,0,0,1.93-.87h0a1.48,1.48,0,0,0,0-1.15,1.53,1.53,0,0,0-.83-.79A1.71,1.71,0,0,0,31,23.16Z"/> <path class="cls-3" d="M49,23.86a3.07,3.07,0,0,1-1.07-.2,3,3,0,0,1-1.67-1.58,3,3,0,0,1,1.51-4,3,3,0,0,1,4,1.51,3,3,0,0,1,.06,2.3h0A3,3,0,0,1,49,23.86Zm0-4a1,1,0,0,0-.93.65,1,1,0,0,0,0,.76,1,1,0,0,0,.55.53,1,1,0,0,0,.77,0,1,1,0,0,0,.52-.56h0a1,1,0,0,0,0-.76,1,1,0,0,0-.55-.53A1.15,1.15,0,0,0,49,19.85Z"/> <path class="cls-3" d="M45.43,33.2a3.07,3.07,0,0,1-1.07-.2,3,3,0,0,1-1.73-3.87,3,3,0,0,1,1.58-1.67,3,3,0,0,1,4,3.81h0A3,3,0,0,1,45.43,33.2Zm0-4a1.15,1.15,0,0,0-.41.08,1,1,0,0,0-.52.56,1,1,0,0,0,.57,1.29,1,1,0,0,0,1.29-.58h0a1,1,0,0,0,0-.76,1,1,0,0,0-.55-.53A1.13,1.13,0,0,0,45.43,29.2Z"/> <path class="cls-3" d="M43.56,30.48a1,1,0,0,1-.35-.06L37.6,28.28a1,1,0,0,1-.56-.53A1.08,1.08,0,0,1,37,27l3.57-9.34a1,1,0,0,1,1.29-.57l5.61,2.14a1,1,0,0,1,.58,1.29,1,1,0,0,1-1.3.58L42.1,19.29l-2.85,7.47,4.67,1.79a1,1,0,0,1,.58,1.29A1,1,0,0,1,43.56,30.48Z"/> <path class="cls-3" d="M38,28.34a1.13,1.13,0,0,1-.36-.06l-4.67-1.79a1,1,0,0,1,.71-1.87l4.67,1.79A1,1,0,0,1,38,28.34Z"/> </g> </g>
</svg>